<?xml version="1.0" standalone="no"?>
<!DOCTYPE svg PUBLIC "-//W3C//DTD SVG 20010904//EN"
 "http://www.w3.org/TR/2001/REC-SVG-20010904/DTD/svg10.dtd">
<svg version="1.0" xmlns="http://www.w3.org/2000/svg"
 width="200.000000pt" height="200.000000pt" viewBox="0 0 200.000000 200.000000"
 preserveAspectRatio="xMidYMid meet">
<metadata>
Created by potrace 1.14, written by Peter Selinger 2001-2017
</metadata>
<g transform="translate(0.000000,200.000000) scale(0.100000,-0.100000)"
fill="#000000" stroke="none">
<path d="M732 1833 c-12 -10 -69 -97 -128 -193 -59 -96 -114 -181 -121 -188
-7 -7 -13 -19 -13 -27 0 -7 -14 -26 -31 -42 -17 -15 -36 -39 -44 -53 -12 -22
-21 -92 -15 -112 2 -5 3 -11 4 -15 0 -5 11 -23 24 -40 13 -18 21 -34 18 -34
-3 -1 -10 -2 -15 -3 -5 0 -13 -5 -18 -10 -5 -5 -3 -6 5 -2 17 10 15 -9 -3 -24
-13 -11 -15 -7 -15 29 0 29 4 40 12 35 6 -4 8 -3 5 3 -9 14 -61 11 -80 -6 -9
-7 -20 -29 -23 -50 -8 -42 -9 -155 -1 -167 3 -5 10 -29 17 -53 14 -53 80 -143
116 -160 22 -10 30 -9 44 4 19 17 103 43 140 43 34 0 83 20 76 31 -3 5 2 12
12 16 15 6 13 10 -13 30 -31 26 -29 33 17 52 24 11 27 9 38 -17 7 -16 18 -34
25 -40 21 -18 6 -81 -27 -112 -32 -30 -38 -54 -10 -39 10 5 24 17 32 25 18 23
30 20 30 -7 0 -13 8 -31 18 -40 20 -19 70 -25 92 -12 8 4 5 -3 -8 -17 -21 -24
-22 -27 -7 -42 21 -20 34 -20 120 4 39 11 73 20 77 20 4 0 19 11 33 24 17 16
35 23 53 21 100 -12 202 -16 202 -8 0 15 -39 29 -120 43 -41 7 -78 16 -82 19
-4 4 29 29 75 56 45 28 96 66 114 85 l33 35 -22 17 c-33 25 -3 22 31 -3 62
-46 152 32 165 144 5 40 -18 97 -38 97 -20 0 -20 18 -2 39 8 9 33 52 57 96 23
44 50 94 60 110 64 113 117 224 114 241 -2 10 -4 24 -4 31 -1 18 -43 21 -76 4
-16 -8 -45 -31 -63 -52 -21 -24 -39 -36 -49 -32 -10 4 -48 -27 -114 -93 -55
-54 -103 -98 -107 -98 -4 1 -17 -2 -30 -7 -13 -5 -25 -9 -27 -9 -2 0 -28 -25
-57 -55 -48 -50 -54 -54 -65 -38 -18 24 -16 30 10 28 72 -7 58 82 -20 123 -32
18 -63 -9 -56 -50 3 -18 11 -37 19 -41 8 -4 14 -14 14 -22 0 -11 -6 -11 -32 3
-18 9 -35 18 -36 19 -2 1 4 27 13 58 9 32 14 59 11 62 -6 6 -36 -52 -36 -71 0
-8 -7 -22 -16 -30 -13 -14 -19 -14 -42 -2 -32 17 -55 5 -117 -63 -22 -24 -57
-62 -77 -83 -20 -21 -40 -47 -43 -58 -4 -11 -11 -20 -16 -20 -6 0 -7 -4 -4
-10 3 -5 -1 -10 -10 -10 -9 0 -13 4 -10 10 4 6 -4 6 -21 0 -15 -6 -33 -9 -41
-6 -7 3 -12 2 -10 -2 1 -4 -2 -8 -7 -9 -5 -1 -13 -7 -17 -15 -7 -10 -9 -9 -9
4 0 9 15 33 34 53 24 25 42 59 56 108 12 40 31 103 43 141 16 55 18 72 9 87
-10 15 -9 33 3 82 9 34 19 69 22 77 3 8 7 20 8 25 2 6 9 33 18 61 26 87 -16
144 -71 97z m452 -952 c7 -10 -18 -34 -27 -25 -7 8 3 34 13 34 5 0 11 -4 14
-9z"/>
<path d="M710 1246 c0 -2 7 -7 16 -10 8 -3 12 -2 9 4 -6 10 -25 14 -25 6z"/>
<path d="M755 1220 c-3 -5 -1 -10 4 -10 6 0 11 5 11 10 0 6 -2 10 -4 10 -3 0
-8 -4 -11 -10z"/>
<path d="M668 1143 c7 -3 16 -2 19 1 4 3 -2 6 -13 5 -11 0 -14 -3 -6 -6z"/>
<path d="M936 502 c-2 -4 -1 -14 4 -22 7 -11 9 -9 7 8 -1 24 -3 26 -11 14z"/>
<path d="M970 500 c0 -5 5 -10 11 -10 5 0 7 5 4 10 -3 6 -8 10 -11 10 -2 0 -4
-4 -4 -10z"/>
<path d="M1259 508 c-5 -16 -4 -46 2 -42 4 2 7 13 6 24 -1 17 -5 26 -8 18z"/>
<path d="M1455 489 c-4 -6 -5 -12 -2 -15 2 -3 7 2 10 11 7 17 1 20 -8 4z"/>
<path d="M516 478 c3 -5 10 -6 15 -3 13 9 11 12 -6 12 -8 0 -12 -4 -9 -9z"/>
<path d="M719 488 c-6 -20 -6 -39 0 -42 4 -3 7 6 7 20 0 20 -4 32 -7 22z"/>
<path d="M899 473 c-12 -16 -12 -17 2 -6 9 7 20 9 24 5 5 -4 5 -1 1 6 -9 16
-11 15 -27 -5z"/>
<path d="M1099 473 c-12 -16 -12 -17 2 -6 9 7 20 9 24 5 5 -4 5 -1 1 6 -9 16
-11 15 -27 -5z"/>
<path d="M605 460 c-3 -6 1 -7 9 -4 18 7 21 14 7 14 -6 0 -13 -4 -16 -10z"/>
<path d="M749 450 c5 -8 6 -21 4 -27 -3 -7 0 -13 5 -13 6 0 9 8 7 18 -1 9 1
22 6 27 5 7 1 11 -11 11 -13 0 -16 -5 -11 -16z"/>
<path d="M959 468 c-6 -22 -5 -39 3 -45 7 -4 8 -1 3 7 -6 9 -4 12 7 8 8 -4 15
-1 15 7 0 8 -7 11 -15 7 -10 -3 -13 -1 -8 6 4 7 5 12 2 12 -3 0 -6 -1 -7 -2z"/>
<path d="M1279 453 c-13 -16 -12 -17 4 -4 16 13 21 21 13 21 -2 0 -10 -8 -17
-17z"/>
<path d="M1350 456 c7 -7 13 -7 20 0 6 6 3 10 -10 10 -13 0 -16 -4 -10 -10z"/>
<path d="M1394 445 c0 -13 6 -27 13 -29 11 -5 11 -1 2 17 -7 12 -11 24 -10 25
2 2 1 5 -1 8 -2 2 -4 -8 -4 -21z"/>
<path d="M657 442 c4 -10 9 -10 22 0 9 7 17 13 19 14 2 1 -8 1 -21 0 -15 0
-23 -6 -20 -14z"/>
<path d="M851 451 c-8 -5 -21 -7 -30 -3 -9 3 -13 2 -10 -2 13 -14 48 -14 53 0
6 16 6 17 -13 5z"/>
<path d="M918 453 c7 -3 16 -2 19 1 4 3 -2 6 -13 5 -11 0 -14 -3 -6 -6z"/>
<path d="M536 441 c9 -9 34 -9 34 -1 0 5 -9 8 -20 7 -10 -1 -17 -3 -14 -6z"/>
<path d="M634 421 c0 -16 4 -27 8 -25 4 2 5 14 3 26 -7 32 -13 32 -11 -1z"/>
<path d="M879 443 c0 -5 -3 -19 -5 -32 -2 -14 -2 -22 1 -19 8 8 17 58 10 58
-3 0 -5 -3 -6 -7z"/>
<path d="M1014 438 c-5 -7 -3 -8 6 -3 9 6 12 4 8 -7 -4 -8 0 -15 7 -15 10 0
11 5 4 19 -11 21 -15 22 -25 6z"/>
<path d="M1307 431 c-3 -13 0 -18 7 -15 7 3 13 11 13 19 0 22 -14 18 -20 -4z"/>
<path d="M1519 448 c-7 -23 -4 -35 7 -35 9 0 11 4 4 12 -5 7 -7 15 -3 18 3 4
3 7 0 7 -4 0 -7 -1 -8 -2z"/>
<path d="M1474 431 c4 -5 0 -11 -6 -14 -7 -3 -3 -4 9 -4 17 1 19 4 11 14 -12
15 -22 18 -14 4z"/>
<path d="M586 416 c5 -13 4 -17 -4 -12 -7 4 -12 2 -12 -3 0 -14 17 -14 26 0 3
6 1 16 -5 22 -9 9 -10 7 -5 -7z"/>
<path d="M804 415 c-4 -8 -10 -13 -14 -10 -4 3 -10 -2 -13 -10 -4 -10 -1 -12
10 -8 10 4 14 2 10 -4 -3 -5 1 -10 9 -10 10 0 11 4 5 10 -7 7 -7 16 0 29 5 10
7 18 4 18 -3 0 -8 -7 -11 -15z"/>
<path d="M924 415 c-4 -8 -10 -13 -14 -10 -5 3 -11 1 -14 -4 -4 -5 1 -8 10 -7
15 2 42 36 29 36 -3 0 -8 -7 -11 -15z"/>
<path d="M456 407 c3 -10 9 -15 12 -12 3 3 0 11 -7 18 -10 9 -11 8 -5 -6z"/>
<path d="M510 400 c0 -5 5 -10 10 -10 6 0 10 5 10 10 0 6 -4 10 -10 10 -5 0
-10 -4 -10 -10z"/>
<path d="M936 393 c-6 -14 -5 -15 5 -6 7 7 10 15 7 18 -3 3 -9 -2 -12 -12z"/>
<path d="M990 400 c0 -5 5 -10 10 -10 6 0 10 5 10 10 0 6 -4 10 -10 10 -5 0
-10 -4 -10 -10z"/>
<path d="M1090 406 c0 -2 7 -7 16 -10 8 -3 12 -2 9 4 -6 10 -25 14 -25 6z"/>
<path d="M1140 400 c8 -5 20 -10 25 -10 6 0 3 5 -5 10 -8 5 -19 10 -25 10 -5
0 -3 -5 5 -10z"/>
<path d="M1250 402 c0 -4 9 -8 20 -9 11 -1 20 2 20 5 0 4 -9 8 -20 9 -11 1
-20 -2 -20 -5z"/>
<path d="M1314 393 c-10 -7 -13 -13 -7 -13 7 0 15 5 18 10 4 6 10 8 14 6 4 -3
13 -1 21 4 11 7 10 9 -7 7 -12 0 -29 -7 -39 -14z"/>
<path d="M1380 406 c0 -2 8 -10 18 -17 15 -13 16 -12 3 4 -13 16 -21 21 -21
13z"/>
<path d="M437 387 c-3 -8 1 -14 8 -14 7 0 11 6 8 14 -3 7 -6 13 -8 13 -2 0 -5
-6 -8 -13z"/>
<path d="M655 390 c-4 -6 1 -7 11 -3 13 5 15 3 9 -7 -5 -9 -4 -11 4 -6 6 4 9
12 6 17 -8 12 -22 12 -30 -1z"/>
<path d="M350 386 c0 -2 7 -7 16 -10 8 -3 12 -2 9 4 -6 10 -25 14 -25 6z"/>
<path d="M535 381 c-9 -15 15 -25 28 -12 9 9 7 10 -7 5 -13 -5 -17 -4 -12 4 4
7 5 12 2 12 -3 0 -7 -4 -11 -9z"/>
<path d="M1068 368 c2 -10 9 -18 15 -18 6 0 7 3 4 7 -4 3 -3 11 3 17 6 8 3 12
-9 12 -12 0 -17 -6 -13 -18z"/>
<path d="M1124 379 c-3 -6 -2 -15 4 -21 6 -6 12 -6 17 3 6 8 4 10 -5 4 -10 -6
-12 -4 -7 8 7 19 2 23 -9 6z"/>
<path d="M1186 376 c6 -15 4 -17 -6 -11 -9 6 -11 4 -5 -4 5 -9 10 -10 18 -2 8
8 7 14 -2 24 -10 10 -11 8 -5 -7z"/>
<path d="M1350 370 c-9 -16 -8 -18 5 -14 8 3 13 10 10 14 -3 5 1 11 7 13 10 4
10 6 1 6 -7 1 -17 -8 -23 -19z"/>
<path d="M1428 383 c6 -2 18 -2 25 0 6 3 1 5 -13 5 -14 0 -19 -2 -12 -5z"/>
<path d="M1510 383 c5 -2 8 -9 5 -13 -3 -5 3 -13 13 -19 14 -7 19 -6 19 4 0 7
-7 11 -14 8 -8 -3 -13 0 -11 7 2 7 -3 14 -10 16 -7 1 -8 0 -2 -3z"/>
<path d="M393 365 c0 -8 4 -15 9 -15 4 0 8 4 8 9 0 6 -4 12 -8 15 -5 3 -9 -1
-9 -9z"/>
<path d="M500 374 c0 -13 18 -39 24 -34 2 3 -2 14 -10 24 -8 11 -14 16 -14 10z"/>
<path d="M596 366 c10 -8 21 -12 24 -10 5 6 -21 24 -34 24 -6 0 -1 -6 10 -14z"/>
<path d="M634 360 c0 -13 4 -16 10 -10 7 7 7 13 0 20 -6 6 -10 3 -10 -10z"/>
<path d="M728 373 c-10 -2 -18 -8 -18 -13 0 -4 8 -14 18 -21 16 -13 16 -13 2
5 -13 18 -13 19 1 14 10 -4 16 -1 16 8 0 8 -1 13 -1 13 -1 -1 -9 -3 -18 -6z"/>
<path d="M894 359 c0 -13 3 -15 13 -7 7 6 13 12 13 13 0 2 -6 5 -13 8 -7 3
-13 -3 -13 -14z"/>
<path d="M1226 364 c-5 -14 -4 -15 9 -4 17 14 19 20 6 20 -5 0 -12 -7 -15 -16z"/>
<path d="M460 360 c-8 -5 -10 -10 -5 -10 6 0 17 5 25 10 8 5 11 10 5 10 -5 0
-17 -5 -25 -10z"/>
<path d="M950 361 c0 -6 4 -13 10 -16 6 -3 7 1 4 9 -7 18 -14 21 -14 7z"/>
<path d="M1013 355 c0 -7 6 -11 14 -8 7 3 13 6 13 8 0 2 -6 5 -13 8 -8 3 -14
-1 -14 -8z"/>
<path d="M1310 365 c0 -5 5 -17 10 -25 5 -8 10 -10 10 -5 0 6 -5 17 -10 25 -5
8 -10 11 -10 5z"/>
<path d="M1390 356 c4 -4 16 -4 26 2 16 9 14 10 -8 9 -15 -1 -23 -6 -18 -11z"/>
<path d="M1467 359 c7 -9 10 -19 6 -22 -3 -4 -1 -7 5 -7 17 0 15 16 -5 31 -16
12 -17 12 -6 -2z"/>
<path d="M1274 346 c1 -8 5 -18 8 -22 4 -3 5 1 4 10 -1 8 -5 18 -8 22 -4 3 -5
-1 -4 -10z"/>
<path d="M1593 345 c0 -8 4 -12 9 -9 5 3 6 10 3 15 -9 13 -12 11 -12 -6z"/>
<path d="M675 341 c6 -11 4 -13 -11 -7 -16 6 -17 5 -4 -6 8 -7 20 -20 28 -28
11 -13 11 -11 1 10 -7 14 -11 27 -10 28 2 2 -1 7 -5 10 -4 4 -3 1 1 -7z"/>
<path d="M804 339 c-3 -6 2 -18 12 -27 17 -16 17 -16 5 0 -7 9 -10 22 -6 28 3
5 4 10 1 10 -3 0 -8 -5 -12 -11z"/>
<path d="M1374 342 c3 -5 0 -13 -6 -15 -10 -4 -10 -6 0 -6 7 -1 11 -5 7 -10
-3 -5 0 -13 6 -17 7 -4 9 -3 5 4 -3 5 0 13 6 15 10 4 10 6 0 6 -7 1 -11 5 -7
10 3 5 0 13 -6 17 -7 4 -9 3 -5 -4z"/>
<path d="M1415 340 c-3 -6 1 -12 9 -15 9 -3 23 -7 32 -10 8 -3 12 0 9 5 -3 6
-15 10 -26 10 -11 0 -17 5 -14 10 3 6 4 10 1 10 -3 0 -8 -5 -11 -10z"/>
<path d="M375 329 c-4 -6 -5 -12 -2 -15 2 -3 7 2 10 11 7 17 1 20 -8 4z"/>
<path d="M421 324 c17 -20 21 -45 9 -59 -6 -7 -2 -11 9 -11 15 0 17 5 11 21
-8 21 -10 30 -10 44 0 5 -7 12 -16 15 -15 6 -15 4 -3 -10z"/>
<path d="M474 332 c3 -5 0 -13 -6 -15 -8 -3 -6 -6 5 -6 19 -1 23 14 5 25 -6 4
-8 3 -4 -4z"/>
<path d="M919 338 c-6 -23 -7 -48 -1 -48 4 0 8 11 8 25 0 21 -4 33 -7 23z"/>
<path d="M970 325 c-10 -13 -11 -18 -1 -28 10 -9 11 -8 5 7 -5 12 -4 17 3 13
5 -3 10 0 10 8 0 19 -2 19 -17 0z"/>
<path d="M1300 335 c0 -5 5 -17 10 -25 5 -8 10 -10 10 -5 0 6 -5 17 -10 25 -5
8 -10 11 -10 5z"/>
<path d="M530 320 c0 -5 5 -10 10 -10 6 0 10 5 10 10 0 6 -4 10 -10 10 -5 0
-10 -4 -10 -10z"/>
<path d="M633 312 c0 -12 5 -22 9 -22 11 0 10 12 -2 30 -7 12 -9 10 -7 -8z"/>
<path d="M750 321 c0 -6 4 -12 8 -15 5 -3 9 1 9 9 0 8 -4 15 -9 15 -4 0 -8 -4
-8 -9z"/>
<path d="M1030 320 c0 -5 5 -10 11 -10 5 0 7 5 4 10 -3 6 -8 10 -11 10 -2 0
-4 -4 -4 -10z"/>
<path d="M1094 318 c-5 -7 -3 -8 6 -3 9 6 12 4 8 -7 -4 -8 0 -15 7 -15 10 0
11 5 4 19 -11 21 -15 22 -25 6z"/>
<path d="M1150 319 c0 -5 5 -7 10 -4 6 3 10 8 10 11 0 2 -4 4 -10 4 -5 0 -10
-5 -10 -11z"/>
<path d="M1247 319 c7 -7 15 -10 18 -7 3 3 -2 9 -12 12 -14 6 -15 5 -6 -5z"/>
<path d="M1515 321 c-3 -5 -2 -12 3 -15 5 -3 9 1 9 9 0 17 -3 19 -12 6z"/>
<path d="M787 295 c3 -8 9 -12 14 -9 12 7 11 11 -5 17 -10 4 -13 1 -9 -8z"/>
<path d="M1350 303 c0 -6 8 -17 18 -24 16 -13 16 -13 2 6 -8 11 -16 22 -17 24
-2 2 -3 0 -3 -6z"/>
<path d="M373 287 c0 -16 34 -20 43 -5 4 7 2 8 -5 4 -6 -4 -18 -3 -25 3 -9 8
-13 7 -13 -2z"/>
<path d="M506 284 c-9 -24 -2 -26 12 -4 7 11 8 20 3 20 -5 0 -12 -7 -15 -16z"/>
<path d="M596 286 c10 -8 21 -12 24 -10 5 6 -21 24 -34 24 -6 0 -1 -6 10 -14z"/>
<path d="M715 290 c-3 -5 -3 -10 2 -10 4 0 1 -5 -7 -10 -8 -5 -10 -10 -5 -10
6 0 17 5 25 10 11 7 11 10 2 10 -7 0 -10 5 -7 10 3 6 4 10 1 10 -3 0 -8 -4
-11 -10z"/>
<path d="M865 285 c11 -9 19 -19 17 -23 -2 -3 1 -7 7 -8 7 -2 8 -1 1 3 -5 2
-8 9 -5 13 3 5 -5 14 -17 20 -22 11 -22 11 -3 -5z"/>
<path d="M1057 284 c2 -7 11 -10 19 -7 19 7 18 10 -5 16 -13 3 -18 1 -14 -9z"/>
<path d="M1156 286 c10 -8 21 -12 24 -10 5 6 -21 24 -34 24 -6 0 -1 -6 10 -14z"/>
<path d="M1230 290 c-8 -5 -12 -11 -10 -14 3 -2 14 2 24 10 22 15 10 19 -14 4z"/>
<path d="M1273 286 c0 -8 7 -13 16 -11 9 1 27 -2 41 -7 17 -6 22 -6 15 1 -6 6
-19 12 -30 14 -11 1 -25 6 -31 9 -6 4 -11 1 -11 -6z"/>
<path d="M1495 290 c-4 -6 -10 -8 -14 -6 -4 3 -8 -1 -8 -9 0 -13 4 -12 19 2
18 16 22 23 14 23 -3 0 -8 -5 -11 -10z"/>
<path d="M310 280 c0 -5 5 -10 11 -10 5 0 7 5 4 10 -3 6 -8 10 -11 10 -2 0 -4
-4 -4 -10z"/>
<path d="M544 275 c-18 -14 -18 -14 4 -8 12 3 22 9 22 14 0 12 -3 11 -26 -6z"/>
<path d="M993 274 c0 -7 7 -10 15 -6 11 4 13 1 7 -8 -5 -8 -4 -11 3 -6 6 4 9
12 6 20 -6 16 -31 17 -31 0z"/>
<path d="M1516 282 c-3 -5 1 -9 9 -9 8 0 12 4 9 9 -3 4 -7 8 -9 8 -2 0 -6 -4
-9 -8z"/>
<path d="M655 270 c-4 -6 1 -7 11 -3 13 5 15 3 9 -7 -5 -9 -4 -11 4 -6 6 4 9
12 6 17 -8 12 -22 12 -30 -1z"/>
<path d="M955 270 c3 -6 1 -10 -6 -10 -7 0 -10 -3 -6 -6 3 -3 13 -2 22 4 16 8
16 9 1 15 -10 4 -15 3 -11 -3z"/>
<path d="M630 264 c0 -5 7 -18 15 -28 8 -11 15 -16 15 -10 0 5 -7 18 -15 28
-8 11 -15 16 -15 10z"/>
<path d="M755 261 c3 -5 1 -12 -5 -16 -5 -3 -10 -11 -10 -18 0 -6 7 -2 15 9
17 23 19 34 4 34 -5 0 -8 -4 -4 -9z"/>
<path d="M1036 255 c-9 -26 -7 -32 5 -12 6 10 9 21 6 23 -2 3 -7 -2 -11 -11z"/>
<path d="M1193 264 c3 -3 1 -18 -4 -33 -6 -15 -6 -22 -1 -16 17 18 24 55 11
55 -7 0 -10 -3 -6 -6z"/>
<path d="M1398 263 c7 -3 16 -2 19 1 4 3 -2 6 -13 5 -11 0 -14 -3 -6 -6z"/>
<path d="M1435 262 c3 -3 0 -10 -5 -17 -7 -8 -5 -12 5 -12 8 0 13 3 10 5 -3 3
0 10 5 17 7 8 5 12 -5 12 -8 0 -13 -3 -10 -5z"/>
<path d="M484 242 c23 -26 23 -26 23 -7 0 8 -3 13 -5 10 -3 -3 -12 1 -21 7
-10 8 -9 4 3 -10z"/>
<path d="M1370 256 c0 -2 7 -9 15 -16 9 -7 15 -8 15 -2 0 5 -7 12 -15 16 -8 3
-15 4 -15 2z"/>
<path d="M592 245 c4 -5 2 -15 -5 -24 -10 -14 -10 -14 5 -3 9 8 22 11 28 7 5
-3 10 -4 10 -1 0 3 -10 11 -22 17 -13 6 -20 8 -16 4z"/>
<path d="M784 235 c-18 -14 -18 -14 4 -8 12 3 22 9 22 14 0 12 -3 11 -26 -6z"/>
<path d="M850 242 c0 -4 10 -9 22 -9 18 -2 20 0 8 7 -18 12 -30 13 -30 2z"/>
<path d="M920 240 c8 -5 20 -10 25 -10 6 0 3 5 -5 10 -8 5 -19 10 -25 10 -5 0
-3 -5 5 -10z"/>
<path d="M970 246 c0 -2 7 -7 16 -10 8 -3 12 -2 9 4 -6 10 -25 14 -25 6z"/>
<path d="M1101 234 c0 -11 3 -14 6 -6 3 7 2 16 -1 19 -3 4 -6 -2 -5 -13z"/>
<path d="M1336 242 c-3 -5 1 -9 9 -9 8 0 12 4 9 9 -3 4 -7 8 -9 8 -2 0 -6 -4
-9 -8z"/>
<path d="M1269 223 c-13 -16 -12 -17 4 -4 16 13 21 21 13 21 -2 0 -10 -8 -17
-17z"/>
<path d="M415 220 c-3 -5 -1 -10 4 -10 6 0 11 5 11 10 0 6 -2 10 -4 10 -3 0
-8 -4 -11 -10z"/>
<path d="M827 209 c6 -23 9 -24 16 -5 3 8 0 17 -7 19 -10 4 -12 -1 -9 -14z"/>
<path d="M907 224 c7 -3 9 -13 6 -22 -4 -14 -3 -14 5 -2 12 16 7 30 -11 29 -9
0 -9 -2 0 -5z"/>
<path d="M555 211 c-3 -5 -2 -12 3 -15 5 -3 9 1 9 9 0 17 -3 19 -12 6z"/>
<path d="M996 207 c3 -10 9 -15 12 -12 3 3 0 11 -7 18 -10 9 -11 8 -5 -6z"/>
<path d="M1295 209 c-4 -6 -5 -12 -2 -15 2 -3 7 2 10 11 7 17 1 20 -8 4z"/>
<path d="M595 199 c-3 -4 2 -6 10 -5 21 3 28 13 10 13 -9 0 -18 -4 -20 -8z"/>
<path d="M654 194 c1 -8 4 -15 7 -16 2 -2 3 -1 2 1 -2 2 2 9 7 16 7 8 5 12 -4
12 -8 0 -13 -6 -12 -13z"/>
<path d="M751 187 c-13 -21 -12 -21 5 -5 10 10 16 20 13 22 -3 3 -11 -5 -18
-17z"/>
<path d="M960 200 c-9 -6 -10 -10 -3 -10 6 0 15 5 18 10 8 12 4 12 -15 0z"/>
<path d="M1050 202 c0 -5 7 -9 15 -9 8 0 12 4 9 9 -3 4 -9 8 -15 8 -5 0 -9 -4
-9 -8z"/>
<path d="M1095 201 c-3 -5 -2 -12 3 -15 5 -3 9 1 9 9 0 17 -3 19 -12 6z"/>
<path d="M876 187 c3 -10 9 -15 12 -12 3 3 0 11 -7 18 -10 9 -11 8 -5 -6z"/>
<path d="M936 167 c3 -10 9 -15 12 -12 3 3 0 11 -7 18 -10 9 -11 8 -5 -6z"/>
<path d="M755 161 c-3 -5 -2 -12 3 -15 5 -3 9 1 9 9 0 17 -3 19 -12 6z"/>
<path d="M1055 160 c3 -5 8 -10 11 -10 2 0 4 5 4 10 0 6 -5 10 -11 10 -5 0 -7
-4 -4 -10z"/>
</g>
</svg>
